<svg xmlns="http://www.w3.org/2000/svg" xmlns:xlink="http://www.w3.org/1999/xlink"><symbol id="icon-envelope" viewBox="0 0 26 19">
<path d="M22.2407 0H3.09787C1.38906 0 0 1.34493 0 2.99946V15.6672C0 17.3217 1.38906 18.6667 3.09787 18.6667H22.2355C23.9443 18.6667 25.3333 17.3217 25.3333 15.6672V3.00453C25.3386 1.35001 23.9495 0 22.2407 0ZM23.9233 15.6672C23.9233 16.5655 23.1685 17.2964 22.2407 17.2964H3.09787C2.17008 17.2964 1.41527 16.5655 1.41527 15.6672V3.00453C1.41527 2.10622 2.17008 1.37539 3.09787 1.37539H22.2355C23.1632 1.37539 23.9181 2.10622 23.9181 3.00453V15.6672H23.9233Z" fill="#00B2FF"/>
<path d="M15.9768 9.17598L22.1725 3.79624C22.4608 3.54248 22.487 3.11108 22.2249 2.82687C21.9629 2.54773 21.5173 2.52236 21.2238 2.77612L12.6797 10.2012L11.0129 8.75981C11.0076 8.75473 11.0024 8.74966 11.0024 8.74458C10.9657 8.70905 10.929 8.6786 10.8871 8.64815L4.10425 2.77104C3.81071 2.51728 3.36517 2.54266 3.10308 2.82687C2.84099 3.11108 2.8672 3.54248 3.16074 3.79624L9.42986 9.22165L3.18695 14.8805C2.90389 15.1394 2.88817 15.5708 3.1555 15.8499C3.29702 15.992 3.48573 16.0681 3.67443 16.0681C3.84741 16.0681 4.02038 16.0072 4.15667 15.8854L10.4939 10.1453L12.2132 11.6324C12.3495 11.7491 12.5172 11.8049 12.685 11.8049C12.8527 11.8049 13.0257 11.744 13.1567 11.6273L14.9232 10.0946L21.2238 15.8905C21.3601 16.0174 21.5383 16.0783 21.7112 16.0783C21.9 16.0783 22.0834 16.0072 22.2249 15.8651C22.4923 15.5911 22.4818 15.1546 22.1987 14.8958L15.9768 9.17598Z" fill="#00B2FF"/>
</symbol><symbol id="icon-fb" viewBox="0 0 27 27">
<path fill-rule="evenodd" clip-rule="evenodd" d="M27 13.5C27 6.04462 20.9562 0 13.5 0C6.04379 0 0 6.04462 0 13.5C0 20.9562 6.04369 27 13.5 27C20.9562 27 27 20.9563 27 13.5ZM16.8836 9.29395H15.1437C14.6754 9.29395 14.3464 9.69053 14.3464 10.185V10.9604H16.8312L16.4288 13.4772H14.3455V20.2238H11.8025V13.4772H10.115V10.9604H11.8025V9.677H11.8075C11.8523 8.21392 12.3602 6.82092 14.8383 6.73315V6.72388H16.8836V9.29395Z" fill="#CDCDCD"/>
</symbol><symbol id="icon-minus" viewBox="0 0 16 2">
<path d="M0 0.5H16V1.5H0V0.5Z" fill="#C4C4C4"/>
</symbol><symbol id="icon-ok" viewBox="0 0 27 26">
<path d="M13.851 10.957C14.8666 10.957 15.6565 10.1213 15.6377 9.2113C15.6565 8.3013 14.8854 7.44702 13.8698 7.44702C12.8918 7.44702 12.083 8.22702 12.083 9.19273C12.083 10.1584 12.8729 10.957 13.851 10.957Z" fill="#CDCDCD"/>
<path d="M13.7008 0C6.44088 0 0.535156 5.8314 0.535156 12.9999C0.535156 20.187 6.44088 25.9999 13.7008 25.9999C20.9795 25.9999 26.8664 20.1685 26.8664 12.9999C26.8852 5.8314 20.9795 0 13.7008 0ZM13.8889 4.9214C16.2587 4.9214 18.2147 6.85282 18.1959 9.21138C18.1959 11.5885 16.2211 13.5014 13.8136 13.4642C11.4438 13.4271 9.54421 11.5142 9.54421 9.19281C9.54421 6.83425 11.4814 4.9214 13.8889 4.9214ZM18.7225 14.9499C18.7225 14.9871 18.7037 15.0056 18.7037 15.0428C18.6473 15.4142 18.4592 15.7114 18.1395 15.9156C17.9326 16.0456 17.7069 16.1756 17.4812 16.2871C16.917 16.5656 16.3151 16.7885 15.6944 16.9371C15.6192 16.9556 15.6192 16.9556 15.6756 17.0113C16.0142 17.3456 16.3715 17.6985 16.7101 18.0328C17.1427 18.4599 17.5941 18.9056 18.0266 19.3328C18.6473 19.9456 18.478 20.967 17.6881 21.3385C17.5564 21.4128 17.406 21.4313 17.2555 21.4685C17.1803 21.4685 17.0862 21.4685 17.011 21.4685C16.9922 21.4685 16.9734 21.4685 16.9734 21.4499C16.6725 21.4128 16.428 21.2642 16.2023 21.0599C15.4499 20.317 14.6788 19.5556 13.9265 18.8128C13.8701 18.7571 13.8701 18.7571 13.8136 18.8128C13.0425 19.5742 12.2902 20.317 11.5191 21.0785C11.3874 21.2085 11.2557 21.3013 11.0865 21.3756C10.9736 21.4313 10.842 21.4499 10.7291 21.4685C10.6539 21.4685 10.5787 21.4685 10.4846 21.4685C10.447 21.4685 10.4282 21.4499 10.3906 21.4499C9.88275 21.357 9.54421 21.0785 9.39374 20.5956C9.24328 20.1128 9.35613 19.6856 9.71348 19.3328C10.0332 19.017 10.3341 18.7199 10.6539 18.4042C11.1241 17.9399 11.5943 17.4756 12.0457 17.0299C12.1021 16.9742 12.1021 16.9742 12.0269 16.9556C12.0081 16.9556 11.9704 16.9371 11.9516 16.9371C11.1053 16.7328 10.3341 16.3985 9.60063 15.9528C9.16805 15.6742 8.96116 15.2656 9.01758 14.7642C9.11162 13.8356 10.1649 13.3342 10.9548 13.8356C11.1053 13.9285 11.2369 14.0028 11.4062 14.0771C12.2714 14.5042 13.193 14.6899 14.1522 14.6342C14.6224 14.6156 15.0926 14.5228 15.5628 14.3742C16.0142 14.2256 16.4091 14.0214 16.8229 13.7985C17.5 13.4085 18.384 13.7242 18.6473 14.4485C18.6849 14.5599 18.7037 14.6528 18.7225 14.7642C18.7225 14.8199 18.7225 14.8756 18.7225 14.9499Z" fill="#CDCDCD"/>
</symbol><symbol id="icon-phone" viewBox="0 0 25 24">
<path d="M19.6447 14.8671C19.1526 14.3555 18.5591 14.082 17.9301 14.082C17.3062 14.082 16.7076 14.3505 16.1952 14.8621L14.5922 16.4576C14.4603 16.3867 14.3285 16.3209 14.2016 16.255C14.019 16.1639 13.8465 16.0777 13.6994 15.9866C12.1979 15.0343 10.8333 13.7933 9.52458 12.1875C8.89048 11.3872 8.46437 10.7135 8.15494 10.0297C8.5709 9.6498 8.95643 9.2547 9.33181 8.87479C9.47385 8.73296 9.61588 8.58607 9.75792 8.44424C10.8232 7.38051 10.8232 6.00273 9.75792 4.93901L8.37306 3.55616C8.21581 3.39913 8.05348 3.23704 7.9013 3.07495C7.59693 2.7609 7.27735 2.43671 6.94762 2.13279C6.45557 1.64652 5.86713 1.38818 5.24826 1.38818C4.62938 1.38818 4.0308 1.64652 3.52353 2.13279C3.51845 2.13786 3.51845 2.13786 3.51338 2.14292L1.78865 3.88034C1.13934 4.52871 0.76903 5.31891 0.687866 6.23574C0.56612 7.71483 1.00238 9.09261 1.33718 9.99424C2.15896 12.2078 3.38656 14.2593 5.21782 16.4576C7.43968 19.1068 10.113 21.1988 13.1668 22.6729C14.3335 23.225 15.8909 23.8784 17.6308 23.9898C17.7373 23.9949 17.8489 24 17.9504 24C19.1222 24 20.1063 23.5796 20.8774 22.7438C20.8824 22.7336 20.8926 22.7286 20.8977 22.7184C21.1614 22.3993 21.4658 22.1106 21.7854 21.8016C22.0035 21.5939 22.2267 21.3761 22.4448 21.1482C22.947 20.6264 23.2108 20.0186 23.2108 19.3956C23.2108 18.7675 22.942 18.1647 22.4296 17.6581L19.6447 14.8671ZM21.4607 20.201C21.4557 20.201 21.4557 20.206 21.4607 20.201C21.2629 20.4137 21.06 20.6062 20.8419 20.8189C20.5121 21.133 20.1773 21.4622 19.8628 21.832C19.3505 22.3791 18.7468 22.6374 17.9555 22.6374C17.8794 22.6374 17.7982 22.6374 17.7221 22.6323C16.2155 22.5361 14.8154 21.9485 13.7654 21.447C10.8942 20.0591 8.37306 18.0887 6.27802 15.5915C4.54822 13.5096 3.39164 11.5848 2.62565 9.5181C2.15389 8.25682 1.98141 7.27414 2.05751 6.34718C2.10823 5.75453 2.33651 5.26319 2.75754 4.84276L4.48735 3.11547C4.73591 2.88247 4.99969 2.75583 5.2584 2.75583C5.57799 2.75583 5.83669 2.94832 5.99902 3.11041C6.0041 3.11547 6.00917 3.12054 6.01424 3.1256C6.32368 3.41433 6.6179 3.71319 6.92733 4.03231C7.08459 4.1944 7.24692 4.35649 7.40924 4.52365L8.7941 5.90649C9.33181 6.44342 9.33181 6.93983 8.7941 7.47675C8.64699 7.62365 8.50495 7.77054 8.35785 7.91237C7.93174 8.348 7.52592 8.75323 7.08459 9.14832C7.07444 9.15846 7.0643 9.16352 7.05922 9.17365C6.62297 9.60927 6.70413 10.0348 6.79544 10.3235C6.80051 10.3387 6.80559 10.3539 6.81066 10.3691C7.17083 11.2403 7.6781 12.0609 8.44915 13.0385L8.45423 13.0436C9.8543 14.7658 11.3305 16.1081 12.9588 17.1364C13.1668 17.2681 13.3799 17.3745 13.5828 17.4758C13.7654 17.567 13.9379 17.6531 14.085 17.7443C14.1053 17.7544 14.1255 17.7696 14.1458 17.7797C14.3183 17.8658 14.4806 17.9063 14.648 17.9063C15.0691 17.9063 15.3329 17.6429 15.4191 17.5568L17.154 15.8245C17.3264 15.6523 17.6004 15.4446 17.92 15.4446C18.2345 15.4446 18.4932 15.6421 18.6504 15.8143C18.6555 15.8194 18.6555 15.8194 18.6606 15.8245L21.4557 18.6155C21.9781 19.1322 21.9781 19.664 21.4607 20.201Z" fill="#00B2FF"/>
<path d="M13.6384 5.70896C14.9675 5.93184 16.1748 6.55994 17.1386 7.52236C18.1024 8.48478 18.7264 9.69034 18.9546 11.0175C19.0104 11.3518 19.2996 11.5848 19.6293 11.5848C19.6699 11.5848 19.7054 11.5797 19.746 11.5747C20.1214 11.5139 20.3699 11.1593 20.3091 10.7845C20.0351 9.17874 19.2742 7.71484 18.1126 6.55488C16.9509 5.39491 15.4849 4.6351 13.8768 4.36157C13.5014 4.30079 13.1514 4.54899 13.0855 4.91876C13.0195 5.28853 13.263 5.64817 13.6384 5.70896Z" fill="#00B2FF"/>
<path d="M24.6564 10.5869C24.2049 7.94279 22.957 5.53674 21.0395 3.62203C19.122 1.70732 16.7124 0.461243 14.0645 0.0104253C13.6942 -0.0554245 13.3442 0.197844 13.2782 0.567616C13.2173 0.942453 13.4659 1.29196 13.8413 1.35781C16.2052 1.75798 18.3611 2.87742 20.0757 4.58445C21.7903 6.29654 22.9063 8.44933 23.307 10.8098C23.3628 11.1441 23.652 11.3771 23.9817 11.3771C24.0223 11.3771 24.0578 11.372 24.0984 11.367C24.4687 11.3113 24.7223 10.9567 24.6564 10.5869Z" fill="#00B2FF"/>
</symbol><symbol id="icon-plus" viewBox="0 0 16 16">
<path fill-rule="evenodd" clip-rule="evenodd" d="M8.5 7.5V0H7.5V7.5H0V8.5H7.5V16H8.5V8.5H16V7.5H8.5Z" fill="#C4C4C4"/>
</symbol><symbol id="icon-vk" viewBox="0 0 27 26">
<path d="M19.475 15.1271C18.3662 14.1029 18.287 14.1029 19.2374 12.9211C20.4254 11.4243 22.0095 9.53349 20.5838 9.53349H17.9701C17.4949 9.53349 17.4157 9.84862 17.2573 10.2425C16.6237 11.7394 15.3565 13.709 14.8812 13.3938C14.406 13.0787 14.6436 11.897 14.6436 10.0062C14.7228 9.76984 14.6436 9.53349 14.4852 9.37592C14.3268 9.21836 14.0892 9.06079 13.8516 9.06079C13.4556 8.98201 13.0596 8.90323 12.6636 8.90323C11.1587 8.90323 10.1291 9.53349 10.6835 9.61227C11.7131 9.76984 11.6339 11.9758 11.3963 12.9211C11.0003 14.5756 9.41624 11.6606 8.70342 10.1638C8.62421 9.76984 8.3074 9.53349 7.91139 9.53349H5.85212C5.53531 9.53349 5.2977 9.61227 5.2977 9.84862C5.2977 10.2425 7.27777 14.1029 9.09943 16.0725C10.9211 17.9632 12.7428 17.8057 14.01 17.8057C14.1684 17.8057 14.3268 17.7269 14.406 17.6481C14.4852 17.5693 14.5644 17.4118 14.5644 17.2542C14.5644 15.9937 15.0396 15.3634 15.9109 16.23C16.8613 17.1754 17.0989 17.8057 18.287 17.8057H20.4254C20.9799 17.8057 21.1383 17.6481 21.1383 17.4118C21.2175 16.8603 20.267 15.8361 19.475 15.1271ZM13.8516 0.000789162C21.2175 0.158354 27.0785 6.06705 26.9993 13.2363C26.9201 20.4055 20.8214 26.0778 13.4556 25.9991C6.01052 25.9203 0.0703125 20.1691 0.0703125 12.9999C0.149515 5.75192 6.32733 -0.0779935 13.8516 0.000789162Z" fill="#CDCDCD"/>
</symbol></svg>