<svg width="27" height="26" fill="none" xmlns="http://www.w3.org/2000/svg"><path d="M13.851 10.957c1.016 0 1.805-.836 1.787-1.746.018-.91-.753-1.764-1.768-1.764-.978 0-1.787.78-1.787 1.746 0 .965.79 1.764 1.768 1.764z" fill="#CDCDCD"/><path d="M13.7 0C6.44 0 .536 5.831.536 13c0 7.187 5.906 13 13.166 13 7.279 0 13.165-5.831 13.165-13 .02-7.169-5.886-13-13.165-13zm.189 4.921c2.37 0 4.326 1.932 4.307 4.29 0 2.377-1.975 4.29-4.382 4.253-2.37-.037-4.27-1.95-4.27-4.271 0-2.359 1.937-4.272 4.345-4.272zm4.834 10.029c0 .037-.02.056-.02.093a1.213 1.213 0 01-.563.873c-.207.13-.433.26-.659.371a8.55 8.55 0 01-1.787.65c-.075.019-.075.019-.018.074l1.034 1.022 1.317 1.3c.62.613.451 1.634-.339 2.006-.132.074-.282.092-.432.13h-.245c-.019 0-.038 0-.038-.02-.3-.036-.545-.185-.77-.39l-2.276-2.246c-.057-.056-.057-.056-.113 0l-2.295 2.265a1.38 1.38 0 01-.433.298c-.112.055-.244.074-.357.092h-.244c-.038 0-.057-.018-.094-.018-.508-.093-.847-.372-.997-.854-.15-.483-.038-.91.32-1.263l.94-.929 1.392-1.374c.056-.056.056-.056-.02-.074-.018 0-.056-.019-.074-.019a8.183 8.183 0 01-2.351-.984c-.433-.279-.64-.687-.583-1.189.094-.928 1.147-1.43 1.937-.928.15.092.282.167.451.241a5.413 5.413 0 002.746.557c.47-.018.94-.111 1.41-.26.452-.148.847-.353 1.26-.575.678-.39 1.562-.075 1.825.65.038.11.057.204.076.315v.186z" fill="#CDCDCD"/></svg>